<?xml version="1.0" encoding="utf-8"?>
<svg viewBox="77.24 57.587 310.329 339.579" width="310.329" height="339.579" xmlns="http://www.w3.org/2000/svg" xmlns:bx="https://boxy-svg.com">
  <path d="M 219.356 76.488 Q 233.09 68.558 246.824 76.488 L 356.699 139.924 Q 370.433 147.853 370.433 163.712 L 370.433 290.584 Q 370.433 306.443 356.699 314.373 L 246.824 377.809 Q 233.09 385.738 219.356 377.809 L 109.481 314.373 Q 95.747 306.443 95.747 290.584 L 95.747 163.712 Q 95.747 147.853 109.481 139.924 Z" style="fill: none; paint-order: fill; stroke: rgb(41, 166, 13); stroke-width: 16px;" bx:shape="n-gon 233.09 227.148 158.59 158.59 6 0.1 1@a5d113c7"/>
  <path d="M 189.367 292.586 C 188.107 292.586 187.037 292.146 186.157 291.264 C 185.274 290.384 184.834 289.314 184.834 288.054 L 184.834 165.1 C 184.834 163.716 185.274 162.583 186.157 161.701 C 187.037 160.82 188.107 160.379 189.367 160.379 L 244.139 160.379 C 254.338 160.379 262.648 161.922 269.069 165.006 C 275.49 168.091 280.244 172.341 283.329 177.755 C 286.413 183.17 287.956 189.464 287.956 196.642 C 287.956 201.426 287.105 205.613 285.406 209.202 C 283.706 212.791 281.629 215.717 279.173 217.983 C 276.718 220.25 274.293 222.013 271.903 223.272 C 276.812 225.539 281.156 229.316 284.934 234.604 C 288.711 239.892 290.6 246.188 290.6 253.491 C 290.6 261.046 288.899 267.782 285.5 273.7 C 282.1 279.617 277.064 284.246 270.391 287.581 C 263.717 290.919 255.47 292.586 245.65 292.586 L 189.367 292.586 Z M 211.087 272.566 L 242.627 272.566 C 249.426 272.566 254.588 270.71 258.115 266.994 C 261.639 263.28 263.403 258.779 263.403 253.491 C 263.403 247.951 261.608 243.356 258.021 239.703 C 254.432 236.053 249.3 234.226 242.627 234.226 L 211.087 234.226 L 211.087 272.566 Z M 211.087 214.584 L 240.739 214.584 C 247.412 214.584 252.417 212.979 255.754 209.767 C 259.09 206.558 260.759 202.371 260.759 197.207 C 260.759 191.92 259.09 187.765 255.754 184.743 C 252.417 181.721 247.412 180.209 240.739 180.209 L 211.087 180.209 L 211.087 214.584 Z" style="fill: rgb(41, 166, 13); white-space: pre;"/>
</svg>