<?xml version="1.0" encoding="utf-8"?>
<svg viewBox="262.341 93.693 122.492 175.674" width="122.492" height="175.674" xmlns="http://www.w3.org/2000/svg">
  <g transform="matrix(0.809129, 0, 0, 0.809129, 239.840317, 99.17733)">
    <g>
      <path d="M37.872,113.44c0.204,0.013,0.405,0.024,0.609,0.024c4.028,0,7.447-3.105,7.764-7.19l2.213-28.547l14.958-10.78v41.409 c0,2.082,0.563,4.025,1.464,5.742l-16.791,69.574c-1.209,5.029,1.878,10.078,6.896,11.289c0.743,0.177,1.48,0.256,2.208,0.256 c4.223,0,8.05-2.874,9.085-7.154l16-66.305l18.182,8.671l-1.525,24.612c-0.32,5.151,3.595,9.597,8.753,9.913 c0.201,0.013,0.396,0.019,0.591,0.019c4.901,0,9.018-3.818,9.328-8.775l1.924-30.914c0.231-3.806-1.863-7.38-5.315-9.018 l-25.852-12.325V76.568l9.042,10.793c1.285,1.535,3.112,2.515,5.093,2.74l27.493,3.118c0.298,0.03,0.59,0.049,0.889,0.049 c3.909,0,7.282-2.938,7.733-6.914c0.487-4.278-2.594-8.139-6.869-8.626l-24.393-2.761L87.477,51.246 c-0.591-1.507-1.465-2.868-2.561-4.025c-1.042-4.031-4.67-7.021-9.024-7.021c-3.242,0-6.092,1.645-7.77,4.144L36.417,67.197 c-1.857,1.342-3.036,3.437-3.209,5.717l-2.497,32.147C30.37,109.361,33.582,113.112,37.872,113.44z"/>
      <circle cx="84.024" cy="19.354" r="19.354"/>
      <path d="M175.179,105.269l-22.963,7.168l5.286,5.285l-25.105,20.137c-0.737,0.591-1.163,1.485-1.163,2.43v28.059H84.024 c-1.72,0-3.118,1.395-3.118,3.117v28.06H33.697c-1.72,0-3.118,1.394-3.118,3.117s1.397,3.118,3.118,3.118h50.327 c1.72,0,3.118-1.395,3.118-3.118v-28.059h47.209c1.717,0,3.118-1.395,3.118-3.118v-29.678l24.472-19.632l6.071,6.071 L175.179,105.269z"/>
    </g>
  </g>
</svg>